<?xml version="1.0" encoding="utf-8"?>
<!-- Designed by Vexels.com - 2019 All Rights Reserved - https://vexels.com/terms-and-conditions/  -->
<svg version="1.1" id="Capa_1" xmlns="http://www.w3.org/2000/svg" xmlns:xlink="http://www.w3.org/1999/xlink" x="0px" y="0px"
	 viewBox="0 0 1200 1200" enable-background="new 0 0 1200 1200" xml:space="preserve">
<g>
	<path fill="#EBB12A" d="M1138,1118.937H62c-6.6,0-12-5.4-12-12V93.063c0-6.6,5.4-12,12-12h1076c6.6,0,12,5.4,12,12v1013.874
		C1150,1113.537,1144.6,1118.937,1138,1118.937z"/>
	<g>
		<path fill="#292C33" d="M468.254,790.607h247.232c23.648,0,42.997-19.349,42.997-42.997V367.804
			c0-23.648-19.349-42.997-42.997-42.997H468.254c-23.648,0-42.998,19.348-42.998,42.997V747.61
			C425.256,771.259,444.605,790.607,468.254,790.607z M504.084,697.447c-13.853,0-25.082-11.229-25.082-25.081
			c0-13.852,11.23-25.082,25.082-25.082c13.852,0,25.081,11.229,25.081,25.082C529.166,686.218,517.936,697.447,504.084,697.447z
			 M733.401,672.366c0,13.852-11.229,25.081-25.081,25.081c-13.852,0-25.082-11.229-25.082-25.081
			c0-13.852,11.23-25.082,25.082-25.082C722.172,647.284,733.401,658.513,733.401,672.366z M475.419,435.882
			c0-23.648,19.349-42.997,42.997-42.997h146.906c23.648,0,42.997,19.348,42.997,42.997v64.496
			c0,23.648-19.349,42.997-42.997,42.997H518.416c-23.648,0-42.997-19.349-42.997-42.997V435.882z"/>
		<path fill="#292C33" d="M741.611,793.918h-8.437l13.403,22.844l-322.321-3.955l13.655-23.108h-8.437L281.843,975.294h38.044
			l-0.081,0.13l522.988,5.336l0.05,0.087h46.399L741.611,793.918z M763.257,845.194l17.22,29.351l-389.963-4.634l16.925-28.641
			L763.257,845.194z M350.551,937.539l20.554-34.784l428.609,4.578l20.851,35.542L350.551,937.539z"/>
		<path fill="#292C33" d="M498.771,313.792H699.43c8.948,0,16.27-7.321,16.27-16.27s-7.322-16.27-16.27-16.27H498.771
			c-8.948,0-16.27,7.321-16.27,16.27S489.823,313.792,498.771,313.792z"/>
	</g>
</g>
</svg>
